<!--
    Based on the capital T glyph of
    https://github.com/edwardtufte/et-book/blob/gh-pages/et-book/et-book-roman-line-figures/et-book-roman-line-figures.svg
-->
<svg xmlns="http://www.w3.org/2000/svg" viewBox="0 0 1600 1600" width="100%" height="100%">
  <circle cx="800" cy="800" r="750" fill="#151515" />
  <g transform="translate(343.375, 344.35) scale(0.65) scale(1, -1) translate(0, -1400)">
    <path d="M70 1014q8 168 32 352q14 12 32 12h5q21 -2 25 -12q16 -35 115 -35q148 3 359 3t484 -3q18 -1 33 -1q45 0 59 5q18 6 27 31q6 10 28.5 8t33.5 -8l32 -354q0 -4 -1 -8.5t-4 -6.5t-6 -3t-7 -2t-8 -1q-12 0 -19.5 1t-11.5 7.5t-5 9.5t-3 13q-25 127 -54.5 169t-85.5 42h-299 q-10 0 -19 -13.5t-9 -23.5v-273v-376v-273v-71q0 -80 31.5 -103.5t123.5 -23.5h60q18 0 29 -27q6 -18 0 -39q-6 -16 -33 -16q-102 4 -237 4q-169 0 -390 -6q-20 0 -25 14q-8 25 0 49q8 12 25 17h80q80 0 107.5 26.5t27.5 104.5v71v280v370v280q0 10 -16.5 19.5t-30.5 9.5 h-236h-43q-57 0 -87.5 -46t-57.5 -186q-10 -6 -24.5 -7t-25.5 4.5t-11 15.5z" fill="#ddd" />
  </g>
</svg>
